File Name

Everymans War 2009 BRRip H264 LKRG-Wrath.mp4

File Size
Format : MPEG-4
Format profile : Base Media
Codec ID : isom
File size : 1.90 GiB
Duration : 1h 44mn
Overall bit rate : 2 596 Kbps

Video
ID : 1
Format : AVC
Format/Info : Advanced Video Codec
Format profile : High@L4.1
Format settings, CABAC : Yes
Format settings, ReFrames : 3 frames
Codec ID : avc1
Codec ID/Info : Advanced Video Coding
Duration : 1h 44mn
Bit rate mode : Variable
Bit rate : 2 018 Kbps
Maximum bit rate : 12.4 Mbps
Width : 1 264 pixels
Height : 560 pixels
Display aspect ratio : 2.25:1
Frame rate mode : Constant
Frame rate : 23.976 fps
Resolution : 24 bits
Colorimetry : 4:2:0
Scan type : Progressive
Bits/(Pixel*Frame) : 0.119
Stream size : 1.48 GiB (78%)

Audio #1
ID : 2
Format : AAC
Format/Info : Advanced Audio Codec
Format version : Version 4
Format profile : LC
Format settings, SBR : No
Codec ID : 40
Duration : 1h 44mn
Bit rate mode : Variable
Bit rate : 128 Kbps
Maximum bit rate : 138 Kbps
Channel(s) : 2 channels
Channel positions : L R
Sampling rate : 48.0 KHz
Resolution : 16 bits
Stream size : 95.9 MiB (5%)

Audio #2
ID : 3
Format : AAC
Format/Info : Advanced Audio Codec
Format version : Version 4
Format profile : LC
Format settings, SBR : No
Codec ID : 40
Duration : 1h 44mn
Bit rate mode : Variable
Bit rate : 448 Kbps
Maximum bit rate : 461 Kbps
Channel(s) : 6 channels
Channel positions : Front: L C R, Rear: L R, LFE
Sampling rate : 48.0 KHz
Resolution : 16 bits
Stream size : 335 MiB (17%)

English SRT : N/A

Language : English

 
http://www.imdb.com/title/tt1209319/

Release Date: ---- 

Genre: War 

Plot: The true story of Don Smith's heroic experience at the Battle of the Bulge while with the 94th Infantry.

Cast: 
Cole Carson ... Don Smith
Lauren Bair ... Dorine
Michael J. Prosser ... Starks
Sean McGrath ... Benedetto
Eric Martin Reid ... Fuller
Brian Julian ... Heinrich



Screenshots
 
http://postimg.com/image/17000/16757.jpg
 
http://postimg.com/image/17000/16758.jpg